<svg xmlns="http://www.w3.org/2000/svg" width="2500" height="508" viewBox="0 0 394 79.43"><path fill="white" d="M261.92.03h68.63V12.7h-27.23v66.64h-13.61V12.7h-27.8V.03zm-112.87 0V12.7h-55v20.38h44.23v12.66H94.04v20.93h55.01v12.67H80.43V.03h68.62zm34.27.04h-17.81l63.8 79.3h17.87l-31.9-39.62L247.12.13 229.3.15l-22.96 28.52L183.32.07zm18.28 56.65-8.92-11.1-27.23 33.81h17.87l18.28-22.71z"/><path fill="white" fill-rule="evenodd" d="M80.9 79.34 17.02 0H0v79.3h13.61V16.96l50.2 62.39h17.1z" clip-rule="evenodd"/><path fill="white" d="M333.6 78.86a3.53 3.53 0 0 1-2.55-1.04A3.33 3.33 0 0 1 330 75.3c0-.96.34-1.79 1.05-2.48a3.53 3.53 0 0 1 2.56-1.04c.96 0 1.8.35 2.5 1.04a3.36 3.36 0 0 1 1.1 2.48 3.44 3.44 0 0 1-.51 1.8 3.67 3.67 0 0 1-1.32 1.27 3.4 3.4 0 0 1-1.77.49zm23.24-33.41h6.03v23.23c0 2.14-.47 3.97-1.37 5.5a9.14 9.14 0 0 1-3.8 3.54c-1.62.82-3.5 1.24-5.66 1.24-1.96 0-3.72-.36-5.29-1.05a8.51 8.51 0 0 1-3.73-3.1 8.89 8.89 0 0 1-1.37-5.09h6.04c.01.9.21 1.66.6 2.3a3.85 3.85 0 0 0 1.6 1.49c.7.35 1.49.52 2.38.52.97 0 1.8-.2 2.48-.61.67-.4 1.19-1 1.55-1.8a7.4 7.4 0 0 0 .54-2.94V45.44zm30.85 9.08c-.15-1.4-.8-2.5-1.92-3.29a7.54 7.54 0 0 0-4.4-1.18c-1.26 0-2.35.2-3.25.57-.9.38-1.6.89-2.09 1.53a3.75 3.75 0 0 0-.73 2.21c0 .7.16 1.29.48 1.79a4 4 0 0 0 1.32 1.28 8.8 8.8 0 0 0 1.85.88c.68.24 1.36.44 2.05.6l3.14.78a21.74 21.74 0 0 1 3.66 1.18 12.97 12.97 0 0 1 3.17 1.87 8.38 8.38 0 0 1 2.2 2.73c.55 1.06.83 2.3.83 3.74 0 1.94-.5 3.64-1.5 5.1a9.9 9.9 0 0 1-4.36 3.44c-1.89.82-4.17 1.24-6.87 1.24-2.6 0-4.87-.4-6.78-1.2a10.02 10.02 0 0 1-4.49-3.48 10.12 10.12 0 0 1-1.74-5.58h5.98a5.01 5.01 0 0 0 3.56 4.58c1.02.37 2.16.56 3.43.56a9.6 9.6 0 0 0 3.48-.59c1-.39 1.78-.93 2.35-1.64.57-.7.85-1.53.86-2.48 0-.86-.27-1.58-.76-2.14a5.87 5.87 0 0 0-2.1-1.42 21.6 21.6 0 0 0-3.16-1.02l-3.82-.97c-2.76-.7-4.94-1.76-6.54-3.19a7.23 7.23 0 0 1-2.4-5.69c0-1.94.54-3.65 1.62-5.11a10.49 10.49 0 0 1 4.39-3.41 15.54 15.54 0 0 1 6.3-1.22c2.39 0 4.47.4 6.27 1.22 1.8.8 3.2 1.93 4.23 3.37a8.53 8.53 0 0 1 1.59 4.94h-5.85z"/></svg>