<?xml version="1.0" encoding="utf-8" ?>
<svg xmlns="http://www.w3.org/2000/svg">
	<symbol id="moon" width="38" height="38" viewBox="0 0 24 24"><path
			stroke="currentColor"
      stroke-linecap="round"
			stroke-linejoin="round"
			stroke-width="2"
			d="m18 2 .618 1.236c.265.53.398.796.575 1.026.158.204.34.387.545.545.23.177.495.31 1.026.575L22 6l-1.236.618c-.53.265-.796.398-1.026.575-.204.158-.387.34-.545.545-.177.23-.31.495-.575 1.026L18 10l-.618-1.236c-.265-.53-.398-.796-.575-1.026a2.996 2.996 0 0 0-.545-.545c-.23-.177-.495-.31-1.026-.575L14 6l1.236-.618c.53-.265.796-.398 1.026-.575.204-.158.387-.34.545-.545.177-.23.31-.495.575-1.026L18 2ZM21 13.39A7.617 7.617 0 1 1 10.611 3C5.78 3.458 2 7.527 2 12.479A9.521 9.521 0 0 0 11.521 22c4.952 0 9.02-3.78 9.479-8.61Z"
		></path>
	</symbol>
	<symbol
    id="sun"
		width="38"
		height="38"
		fill="none"
		viewBox="0 0 24 24"
		><path
			stroke="currentColor"
			stroke-linecap="round"
			stroke-linejoin="round"
			stroke-width="2"
			d="M5 12H3m9-7V3m9 9h-2m-7 9v-2m4.95-2.05 1.414 1.414M5.636 5.636 7.05 7.05m9.9 0 1.414-1.414M5.636 18.364 7.05 16.95M15 12a3 3 0 1 1-6 0 3 3 0 0 1 6 0Z"
		></path>
	</symbol>
</svg>