<?xml version="1.0" encoding="utf-8"?>
<svg xmlns="http://www.w3.org/2000/svg">
	<svg id="github" width="var(--size, 38px)" height="var(--size, 38px)" viewBox="0 0 20 20">
		<path
			fill="currentColor"
			fill-rule="evenodd"
			d="M10 0c5.52 0 10 4.59 10 10.25 0 4.53-2.86 8.37-6.83 9.73-.51.1-.69-.22-.69-.5l.01-2.8c0-.96-.32-1.58-.68-1.9 2.23-.26 4.57-1.12 4.57-5.06 0-1.12-.39-2.04-1.03-2.75.1-.26.45-1.3-.1-2.72 0 0-.84-.27-2.75 1.05a9.4 9.4 0 0 0-5 0C5.59 3.98 4.75 4.25 4.75 4.25a3.78 3.78 0 0 0-.1 2.72 4.03 4.03 0 0 0-1.03 2.75c0 3.93 2.33 4.8 4.55 5.06-.28.26-.54.71-.63 1.38-.57.26-2.02.71-2.91-.86 0 0-.53-.98-1.53-1.05 0 0-.98-.02-.07.62 0 0 .65.32 1.1 1.5 0 0 .6 1.83 3.38 1.21l.01 1.9c0 .28-.18.6-.68.5A10.23 10.23 0 0 1 0 10.25C0 4.6 4.48 0 10 0"
		></path>
	</svg>
	<svg id="gmail" width="var(--size, 38px)" height="var(--size, 38px)" viewBox="0 -31.5 256 256"
		><path
			fill="#4285F4"
			d="M58.182 192.05V93.14L27.507 65.077 0 49.504v125.091c0 9.658 7.825 17.455 17.455 17.455h40.727Z"
		></path><path
			fill="#34A853"
			d="M197.818 192.05h40.727c9.659 0 17.455-7.826 17.455-17.455V49.505l-31.156 17.837-27.026 25.798v98.91Z"
		></path><path
			fill="#EA4335"
			d="m58.182 93.14-4.174-38.647 4.174-36.989L128 69.868l69.818-52.364 4.669 34.992-4.669 40.644L128 145.504z"
		></path><path
			fill="#FBBC04"
			d="M197.818 17.504V93.14L256 49.504V26.231c0-21.585-24.64-33.89-41.89-20.945l-16.292 12.218Z"
		></path><path
			fill="#C5221F"
			d="m0 49.504 26.759 20.07L58.182 93.14V17.504L41.89 5.286C24.61-7.66 0 4.646 0 26.23v23.273Z"
		></path></svg
	>
	<svg
		id="linkedin"
		xml:space="preserve"
		width="var(--size, 38px)"
		height="var(--size, 38px)"
		style="enable-background:new 0 0 382 382"
		viewBox="0 0 382 382"
		><path fill="#fff" d="M30 30h330v330H30z"></path><path
			d="M347.445 0H34.555C15.471 0 0 15.471 0 34.555v312.889C0 366.529 15.471 382 34.555 382h312.889C366.529 382 382 366.529 382 347.444V34.555C382 15.471 366.529 0 347.445 0zM118.207 329.844c0 5.554-4.502 10.056-10.056 10.056H65.345c-5.554 0-10.056-4.502-10.056-10.056V150.403c0-5.554 4.502-10.056 10.056-10.056h42.806c5.554 0 10.056 4.502 10.056 10.056v179.441zM86.748 123.432c-22.459 0-40.666-18.207-40.666-40.666S64.289 42.1 86.748 42.1s40.666 18.207 40.666 40.666-18.206 40.666-40.666 40.666zM341.91 330.654a9.247 9.247 0 0 1-9.246 9.246H286.73a9.247 9.247 0 0 1-9.246-9.246v-84.168c0-12.556 3.683-55.021-32.813-55.021-28.309 0-34.051 29.066-35.204 42.11v97.079a9.246 9.246 0 0 1-9.246 9.246h-44.426a9.247 9.247 0 0 1-9.246-9.246V149.593a9.247 9.247 0 0 1 9.246-9.246h44.426a9.247 9.247 0 0 1 9.246 9.246v15.655c10.497-15.753 26.097-27.912 59.312-27.912 73.552 0 73.131 68.716 73.131 106.472v86.846z"
			style="fill:#0077b7"></path></svg
	>
</svg>
